<?xml version="1.0" encoding="UTF-8" standalone="no"?>
<svg width="256px"
   height="256px"
   viewBox="0 0 256 256"
   version="1.1"
   xmlns="http://www.w3.org/2000/svg"
   xmlns:svg="http://www.w3.org/2000/svg">
  <defs
     id="defs1">
    <style
       id="style1">
			.blue {
				stroke: #eeeeee;
				stroke-width: 8px;
				fill: #003399
			}
			.yellow: #FFCC00
		</style>
  </defs>
  <path
     class="blue"
     d="   M 56 8   h 88   l 88 88   v 136   a 16 16 0 0 1 -16 16   h -160   a 16 16 0 0 1 -16 -16   v -208   a 16 16 0 0 1 16 -16   "
     id="path1" />
  <g
     transform="matrix(0.41190668,0,0,0.41190668,69.565261,109.11864)"> <path stroke="#ffcc00" fill="#ffcc00"
   d="m 183.815,265.726 c -32.444,0 -60.868,-21.837 -76.306,-54.325 H 209.61 V 166.378 H 95.643 c -0.284,-3.642 -0.437,-7.29 -0.437,-11.016 0,-3.691 0.152,-7.384 0.437,-10.977 H 209.612 V 99.353 H 107.51 c 15.438,-32.485 43.861,-54.315 76.306,-54.315 31.01,0 60.21,20.759 76.2,54.152 L 300.642,79.772 C 277.091,30.554 232.329,0 183.815,0 147.345,0 113.305,16.665 87.964,46.966 75.219,62.209 65.481,79.995 59.079,99.353 H 10.108 v 45.031 h 40.39 c -0.217,3.617 -0.329,7.311 -0.329,10.977 0,3.704 0.112,7.351 0.329,11.016 H 10.108 V 211.4 h 48.971 c 6.402,19.356 16.14,37.122 28.886,52.351 25.341,30.303 59.381,46.999 95.851,46.999 48.515,0 93.275,-30.55 116.826,-79.767 l -40.626,-19.454 c -15.991,33.436 -45.191,54.197 -76.201,54.197 z"
   />
 </g>
  <polyline
     class="blue"
     points="144,8 144,96 232,96"
     id="polyline1" />
</svg>
